<svg xmlns="http://www.w3.org/2000/svg" width="81.86" height="80" viewBox="0 0 81.86 80"><path d="M61.558,40.93H11a11,11,0,0,1-11-11V11A11,11,0,0,1,11,0H61.558a11,11,0,0,1,11,11V29.93a11,11,0,0,1-11,11ZM16.582,5.582a11,11,0,0,0-11,11v7.767a11,11,0,0,0,11,11H55.976a11,11,0,0,0,11-11V16.582a11,11,0,0,0-11-11Z" transform="translate(3.721 0)" fill="#4e6276"/><path d="M0,0H6.326V16.744H0Z" transform="translate(37.209 37.209)" fill="#4e6276"/><path d="M57.674,29.768H24.186C18.031,29.768,0,24.76,0,11.163A11.176,11.176,0,0,1,11.163,0H70.7A11.176,11.176,0,0,1,81.86,11.163C81.86,24.76,63.829,29.768,57.674,29.768ZM13.024,5.116c-4.1,0-7.443,2.493-7.443,6.047,0,9.643,14.5,13.023,18.605,13.023H57.674c4.1,0,18.605-3.785,18.605-13.023,0-3.419-3.339-6.047-7.443-6.047Z" transform="translate(0 50.232)" fill="#4e6276"/><circle cx="3.721" cy="3.721" r="3.721" transform="translate(24.186 16.744)" fill="#4e6276"/><circle cx="3.721" cy="3.721" r="3.721" transform="translate(50.232 16.744)" fill="#4e6276"/></svg>