<svg xmlns="http://www.w3.org/2000/svg" width="68.466" height="80" viewBox="0 0 68.466 80"><g transform="translate(-86.356 -1.738)"><path d="M-1841.512-614a1.789,1.789,0,0,1-1.689-1.162,1.809,1.809,0,0,1,.46-2.023,25.338,25.338,0,0,0,6.161-8.943,33.937,33.937,0,0,1-12.262-4.86,34.186,34.186,0,0,1-9.29-8.84,34.06,34.06,0,0,1-6.033-25.046,33.713,33.713,0,0,1,4.007-11.639,34.32,34.32,0,0,1,7.611-9.224A34.29,34.29,0,0,1-1830.31-694c1.13,0,2.276.058,3.4.171a34.046,34.046,0,0,1,13.119,4.077,34.1,34.1,0,0,1,10.133,8.522,34.115,34.115,0,0,1,6.159,11.729,34.007,34.007,0,0,1,1.176,13.671,34.019,34.019,0,0,1-8.19,18.539,34.387,34.387,0,0,1-7.57,6.476,34.2,34.2,0,0,1-9.17,4.05,24.981,24.981,0,0,1-6.893,7.865,24.8,24.8,0,0,1-9.873,4.432,25.317,25.317,0,0,1-3.357.464C-1841.418-614-1841.466-614-1841.512-614Zm9.385-31.3a3.625,3.625,0,0,0-3.621,3.621v.482a3.625,3.625,0,0,0,3.621,3.621,3.624,3.624,0,0,0,3.62-3.621v-.482A3.624,3.624,0,0,0-1832.126-645.3Zm1.942-17.992a5.57,5.57,0,0,0-5.563,5.564v6.384a3.624,3.624,0,0,0,3.62,3.621,3.625,3.625,0,0,0,3.621-3.621v-4.711a13.15,13.15,0,0,0,9.19-4.113,12.948,12.948,0,0,0,3.515-9.769,13.059,13.059,0,0,0-12.206-12.207c-.274-.017-.552-.026-.826-.026a13,13,0,0,0-7.575,2.431,12.973,12.973,0,0,0-4.782,6.392,3.625,3.625,0,0,0,2.25,4.6,3.609,3.609,0,0,0,1.173.2A3.623,3.623,0,0,0-1834.34-671a5.823,5.823,0,0,1,5.512-3.93c.123,0,.248,0,.371.012a5.881,5.881,0,0,1,5.428,5.429,5.781,5.781,0,0,1-1.565,4.36,5.764,5.764,0,0,1-4.241,1.834Z" transform="translate(1950.906 695.737)" fill="#4e6276"/></g></svg>