<svg xmlns="http://www.w3.org/2000/svg" width="68" height="80" viewBox="0 0 68 80"><g transform="translate(0 0.001)"><path d="M135.656,158.457A15.243,15.243,0,1,0,150.871,173.7,15.246,15.246,0,0,0,135.656,158.457Zm9.033,12.372-10.9,10.92a2.339,2.339,0,0,1-3.314,0l-4.165-4.173a2.345,2.345,0,1,1,3.313-3.319l2.509,2.513,9.244-9.26a2.345,2.345,0,0,1,3.313,3.319Zm0,0" transform="translate(-101.657 -133.699)" fill="#4e6276"/><path d="M67.921,21.705l0-.062c-.035-.768-.058-1.581-.072-2.486a8.472,8.472,0,0,0-7.969-8.306C50.7,10.337,43.594,7.338,37.525,1.412l-.052-.049a5.1,5.1,0,0,0-6.945,0l-.052.049c-6.069,5.926-13.171,8.925-22.352,9.439A8.471,8.471,0,0,0,.156,19.157c-.013.9-.037,1.711-.072,2.485l0,.145c-.179,9.379-.4,21.052,3.5,31.647a40.294,40.294,0,0,0,9.647,15.054A50.449,50.449,0,0,0,32.1,79.676a5.827,5.827,0,0,0,.774.211,5.706,5.706,0,0,0,2.247,0,5.833,5.833,0,0,0,.777-.212A50.48,50.48,0,0,0,54.76,68.482a40.353,40.353,0,0,0,9.647-15.058C68.32,42.8,68.1,31.1,67.921,21.705ZM34,59.937A19.937,19.937,0,1,1,53.9,40,19.941,19.941,0,0,1,34,59.937Zm0,0" transform="translate(0 0)" fill="#4e6276"/></g></svg>