<svg xmlns="http://www.w3.org/2000/svg" xmlns:xlink="http://www.w3.org/1999/xlink" width="44" height="50" viewBox="0 0 44 50"><defs><style>.a{fill:url(#a);}</style><linearGradient id="a" x2="1" y2="1" gradientUnits="objectBoundingBox"><stop offset="0" stop-color="#d9ecff"/><stop offset="1" stop-color="#a4a6e0"/></linearGradient></defs><path class="a" d="M4114.895-4552a1.447,1.447,0,0,1-.519-.1,29.667,29.667,0,0,1-13.119-9.759,38.418,38.418,0,0,1-6.267-12.734,52.078,52.078,0,0,1-2.071-15.722,1.456,1.456,0,0,1,.808-1.232l20.518-10.3a1.5,1.5,0,0,1,.65-.153,1.483,1.483,0,0,1,.65.153l20.519,10.3a1.454,1.454,0,0,1,.807,1.232,51.61,51.61,0,0,1-1.439,13.348c-.193.8-.406,1.6-.632,2.375-.185.629-.379,1.258-.59,1.867h0v.006a40.952,40.952,0,0,1-2.473,5.817c-.473.906-.981,1.788-1.51,2.62s-1.105,1.652-1.693,2.419c-.213.278-.431.555-.661.823a29.983,29.983,0,0,1-2.65,2.838,29.934,29.934,0,0,1-2.975,2.444,29.42,29.42,0,0,1-3.272,2.034,30.181,30.181,0,0,1-3.564,1.623A1.4,1.4,0,0,1,4114.895-4552Zm0-43.446a1.391,1.391,0,0,0-.65.154l-14.618,7.334a1.467,1.467,0,0,0-.8,1.4,47.942,47.942,0,0,0,1.866,10.63c2.5,8.315,7.063,14.167,13.56,17.391a1.476,1.476,0,0,0,.647.15,1.473,1.473,0,0,0,.646-.15c6.5-3.224,11.062-9.076,13.569-17.391a47.67,47.67,0,0,0,1.854-10.63,1.462,1.462,0,0,0-.8-1.4l-14.621-7.334a1.415,1.415,0,0,0-.176-.074A1.344,1.344,0,0,0,4114.895-4595.447Z" transform="translate(-4092.895 4602.001)"/></svg>