<svg xmlns="http://www.w3.org/2000/svg" xmlns:xlink="http://www.w3.org/1999/xlink" width="173" height="57" viewBox="0 0 173 57"><defs><linearGradient id="a" x2="1" y2="1" gradientUnits="objectBoundingBox"><stop offset="0" stop-color="#d9ecff"/><stop offset="1" stop-color="#a4a6e0"/></linearGradient></defs><g transform="translate(5122.75 -4902)"><path d="M-2463.264,59.979l.593-3.64a5.094,5.094,0,0,0,2.074.444,3.8,3.8,0,0,0,1.215-.163,2.025,2.025,0,0,0,.787-.473,2.637,2.637,0,0,0,.518-.755q.208-.444.445-1.036l.326-.829-6.314-14.5h4.8l3.706,9.5h.059l3.172-9.5h4.565l-6.521,16.719q-.446,1.154-.86,2.042a4.905,4.905,0,0,1-1.052,1.494,4.105,4.105,0,0,1-1.616.917,8.748,8.748,0,0,1-2.578.311A10.447,10.447,0,0,1-2463.264,59.979Zm-93.791-6.658a9.5,9.5,0,0,1-3.261-2.012l3.29-3.61a4.819,4.819,0,0,0,1.793,1.465,5.126,5.126,0,0,0,2.238.518,5.065,5.065,0,0,0,1.141-.133,3.715,3.715,0,0,0,1.038-.4,2.239,2.239,0,0,0,.742-.681,1.7,1.7,0,0,0,.281-.977,1.771,1.771,0,0,0-.726-1.494,6.725,6.725,0,0,0-1.824-.932q-1.1-.385-2.371-.769a10.671,10.671,0,0,1-2.373-1.036,5.715,5.715,0,0,1-1.822-1.716,4.9,4.9,0,0,1-.727-2.811,6.274,6.274,0,0,1,.668-2.959,6.43,6.43,0,0,1,1.778-2.131,7.762,7.762,0,0,1,2.564-1.287,10.507,10.507,0,0,1,2.994-.429,11.8,11.8,0,0,1,3.439.5,7.919,7.919,0,0,1,2.994,1.687l-3.172,3.462a3.292,3.292,0,0,0-1.526-1.05,5.47,5.47,0,0,0-1.823-.34,4.76,4.76,0,0,0-1.037.118,3.971,3.971,0,0,0-1.009.37,2.194,2.194,0,0,0-.77.666,1.681,1.681,0,0,0-.3,1.006,1.667,1.667,0,0,0,.711,1.45,6.742,6.742,0,0,0,1.793.858q1.083.355,2.327.71a9.591,9.591,0,0,1,2.327,1.006,5.51,5.51,0,0,1,1.794,1.746,5.312,5.312,0,0,1,.711,2.93,6.728,6.728,0,0,1-.652,3.048,6.2,6.2,0,0,1-1.764,2.16,7.516,7.516,0,0,1-2.58,1.272,11.358,11.358,0,0,1-3.1.414A11.25,11.25,0,0,1-2557.055,53.321Zm87.477.207a4.715,4.715,0,0,1-1.659-.755,3.535,3.535,0,0,1-1.113-1.346,4.6,4.6,0,0,1-.4-2.012V42.579h-2.845V39.028h2.845V34.767h4.446v4.261h3.913v3.551h-3.913v4.794a8.841,8.841,0,0,0,.061,1.08,2.172,2.172,0,0,0,.265.843,1.352,1.352,0,0,0,.638.547,2.835,2.835,0,0,0,1.141.192,7.643,7.643,0,0,0,.934-.074,1.583,1.583,0,0,0,.875-.34v3.7a6.72,6.72,0,0,1-1.541.355,14.253,14.253,0,0,1-1.572.089A8.575,8.575,0,0,1-2469.578,53.528Zm-38.817-.281a3.917,3.917,0,0,1-1.63-1.435,5.61,5.61,0,0,1-.771-2.16,17.547,17.547,0,0,1-.193-2.693v-7.93h4.447v7.043q0,.621.044,1.287a4.083,4.083,0,0,0,.266,1.228,2.119,2.119,0,0,0,.683.917,2.119,2.119,0,0,0,1.318.355,2.754,2.754,0,0,0,1.394-.311,2.126,2.126,0,0,0,.815-.829,3.393,3.393,0,0,0,.37-1.169,9.973,9.973,0,0,0,.089-1.361V39.028h4.447V53.41h-4.269V51.457h-.06a4.862,4.862,0,0,1-.607.829,3.989,3.989,0,0,1-.9.74,5.275,5.275,0,0,1-1.216.533,5.063,5.063,0,0,1-1.481.207A6.227,6.227,0,0,1-2508.4,53.247Zm-12.451-.015a7.539,7.539,0,0,1-2.549-1.524,7.161,7.161,0,0,1-1.7-2.382,7.528,7.528,0,0,1-.622-3.107,7.528,7.528,0,0,1,.622-3.107,7.161,7.161,0,0,1,1.7-2.382,7.539,7.539,0,0,1,2.549-1.524,9.1,9.1,0,0,1,3.128-.533,9.2,9.2,0,0,1,2.683.429,5.681,5.681,0,0,1,2.445,1.494l-2.935,3.077a2.5,2.5,0,0,0-.919-.784,2.707,2.707,0,0,0-1.275-.311,3.4,3.4,0,0,0-2.624,1.006,3.719,3.719,0,0,0-.934,2.634,3.719,3.719,0,0,0,.934,2.634,3.4,3.4,0,0,0,2.624,1.006,2.407,2.407,0,0,0,1.275-.326,3.888,3.888,0,0,0,.919-.769l2.935,3.077a5.681,5.681,0,0,1-2.445,1.494,9.2,9.2,0,0,1-2.683.429A9.1,9.1,0,0,1-2520.846,53.232Zm-17.015,0a7.542,7.542,0,0,1-2.55-1.524,7.161,7.161,0,0,1-1.7-2.382,7.513,7.513,0,0,1-.623-3.107,7.513,7.513,0,0,1,.623-3.107,7.161,7.161,0,0,1,1.7-2.382,7.542,7.542,0,0,1,2.55-1.524,9.092,9.092,0,0,1,3.127-.533,7.129,7.129,0,0,1,2.8.533,5.841,5.841,0,0,1,2.135,1.524,6.948,6.948,0,0,1,1.349,2.382,9.6,9.6,0,0,1,.474,3.107V47.61h-10.316a3.509,3.509,0,0,0,1.156,2.027,3.275,3.275,0,0,0,2.194.755,3.346,3.346,0,0,0,1.853-.488,4.983,4.983,0,0,0,1.319-1.258l3.112,2.279a7.1,7.1,0,0,1-2.7,2.1,8.087,8.087,0,0,1-3.38.74A9.092,9.092,0,0,1-2537.861,53.232Zm1.408-11.126a3.279,3.279,0,0,0-.964.607,2.638,2.638,0,0,0-.622.858,2.818,2.818,0,0,0-.253,1.021h5.87a2.57,2.57,0,0,0-.742-1.923,2.636,2.636,0,0,0-1.985-.8A3.346,3.346,0,0,0-2536.452,42.106Zm54.6,11.3V39.028h4.446V53.41Zm-12.125,0V39.028h4.447v2.308h.059a5.461,5.461,0,0,1,1.689-2,4.277,4.277,0,0,1,2.46-.666q.386,0,.771.03a3.84,3.84,0,0,1,.711.118v4.054a6.766,6.766,0,0,0-.934-.222,6.021,6.021,0,0,0-.963-.074,4.728,4.728,0,0,0-2.016.355,2.676,2.676,0,0,0-1.142.991,3.766,3.766,0,0,0-.519,1.524,14.852,14.852,0,0,0-.118,1.953V53.41Zm12.524-17.089a2.481,2.481,0,0,1-.756-1.82,2.481,2.481,0,0,1,.756-1.82,2.489,2.489,0,0,1,1.824-.755,2.484,2.484,0,0,1,1.822.755,2.478,2.478,0,0,1,.757,1.82,2.478,2.478,0,0,1-.757,1.82,2.484,2.484,0,0,1-1.822.755A2.489,2.489,0,0,1-2481.45,36.321Zm15.185-11.066a6.54,6.54,0,0,1-2.283-1.554,6.9,6.9,0,0,1-1.438-2.338,8.258,8.258,0,0,1-.5-2.915,7.663,7.663,0,0,1,.548-2.915,7.254,7.254,0,0,1,1.512-2.338,6.913,6.913,0,0,1,2.3-1.554,7.412,7.412,0,0,1,2.905-.562,6.956,6.956,0,0,1,3.157.651,6.241,6.241,0,0,1,2.12,1.7,6.71,6.71,0,0,1,1.2,2.367,9.824,9.824,0,0,1,.371,2.678v.947h-11.264a3.5,3.5,0,0,0,.4,1.672,4.155,4.155,0,0,0,1.051,1.287,4.863,4.863,0,0,0,1.513.829,5.416,5.416,0,0,0,1.778.3,3.98,3.98,0,0,0,2.164-.577,6.944,6.944,0,0,0,1.69-1.524l2.016,1.539a7.423,7.423,0,0,1-6.225,2.87A7.74,7.74,0,0,1-2466.266,25.255Zm1.185-11.674a4.385,4.385,0,0,0-1.378.962,4.46,4.46,0,0,0-.875,1.317,3.623,3.623,0,0,0-.311,1.435h8.419a5.611,5.611,0,0,0-.281-1.628,3.585,3.585,0,0,0-.756-1.287,3.49,3.49,0,0,0-1.259-.858,4.622,4.622,0,0,0-1.765-.311A4.3,4.3,0,0,0-2465.081,13.581Zm-58.571,11.7a5.522,5.522,0,0,1-2.356-1.953l2.016-1.657a8.249,8.249,0,0,0,1.453,1.154,3.6,3.6,0,0,0,1.956.5,5.165,5.165,0,0,0,1.022-.1,3.152,3.152,0,0,0,.919-.326,2.007,2.007,0,0,0,.652-.562,1.28,1.28,0,0,0,.252-.784,1.349,1.349,0,0,0-.371-.977,2.693,2.693,0,0,0-.888-.607,6.476,6.476,0,0,0-1.1-.355q-.578-.133-1.023-.222-.859-.206-1.63-.473a4.963,4.963,0,0,1-1.364-.71,3.282,3.282,0,0,1-.949-1.124,3.612,3.612,0,0,1-.355-1.687,3.824,3.824,0,0,1,.459-1.909,4.08,4.08,0,0,1,1.216-1.346,5.492,5.492,0,0,1,1.719-.8,7.258,7.258,0,0,1,1.942-.266,7.146,7.146,0,0,1,2.727.533,4.314,4.314,0,0,1,2.075,1.775l-2.075,1.568a4.086,4.086,0,0,0-1.171-.991,3.374,3.374,0,0,0-1.7-.4,3.252,3.252,0,0,0-1.645.4,1.275,1.275,0,0,0-.7,1.169,1.334,1.334,0,0,0,.4,1.006,3.149,3.149,0,0,0,.949.621,5.511,5.511,0,0,0,1.171.355q.623.119,1.067.207a12.516,12.516,0,0,1,1.616.5,4.485,4.485,0,0,1,1.3.769,3.337,3.337,0,0,1,.86,1.154,3.971,3.971,0,0,1,.311,1.657,3.879,3.879,0,0,1-.5,2.027,4.236,4.236,0,0,1-1.3,1.376,5.487,5.487,0,0,1-1.823.769,9.073,9.073,0,0,1-2.06.237A8.159,8.159,0,0,1-2523.651,25.285Zm14.774-.03a6.543,6.543,0,0,1-2.282-1.554,6.883,6.883,0,0,1-1.437-2.338,8.252,8.252,0,0,1-.5-2.915,7.658,7.658,0,0,1,.548-2.915,7.237,7.237,0,0,1,1.513-2.338,6.9,6.9,0,0,1,2.3-1.554,7.415,7.415,0,0,1,2.905-.562,6.959,6.959,0,0,1,3.157.651,6.243,6.243,0,0,1,2.119,1.7,6.711,6.711,0,0,1,1.2,2.367,9.843,9.843,0,0,1,.37,2.678v.947h-11.264a3.511,3.511,0,0,0,.4,1.672,4.169,4.169,0,0,0,1.052,1.287,4.87,4.87,0,0,0,1.512.829,5.423,5.423,0,0,0,1.779.3,3.983,3.983,0,0,0,2.164-.577,6.948,6.948,0,0,0,1.69-1.524l2.016,1.539a7.423,7.423,0,0,1-6.225,2.87A7.748,7.748,0,0,1-2508.878,25.255Zm1.186-11.674a4.386,4.386,0,0,0-1.378.962,4.455,4.455,0,0,0-.875,1.317,3.619,3.619,0,0,0-.312,1.435h8.419a5.586,5.586,0,0,0-.282-1.628,3.567,3.567,0,0,0-.756-1.287,3.473,3.473,0,0,0-1.26-.858,4.614,4.614,0,0,0-1.763-.311A4.294,4.294,0,0,0-2507.692,13.581Zm-30.489,11.674a6.54,6.54,0,0,1-2.283-1.554,6.878,6.878,0,0,1-1.437-2.338,8.231,8.231,0,0,1-.5-2.915,7.663,7.663,0,0,1,.548-2.915,7.251,7.251,0,0,1,1.512-2.338,6.912,6.912,0,0,1,2.3-1.554,7.417,7.417,0,0,1,2.906-.562,6.955,6.955,0,0,1,3.156.651,6.239,6.239,0,0,1,2.12,1.7,6.707,6.707,0,0,1,1.2,2.367,9.824,9.824,0,0,1,.37,2.678v.947h-11.263a3.513,3.513,0,0,0,.4,1.672,4.167,4.167,0,0,0,1.052,1.287,4.868,4.868,0,0,0,1.512.829,5.423,5.423,0,0,0,1.779.3,3.981,3.981,0,0,0,2.163-.577,6.94,6.94,0,0,0,1.69-1.524l2.016,1.539a7.424,7.424,0,0,1-6.225,2.87A7.746,7.746,0,0,1-2538.181,25.255Zm1.186-11.674a4.381,4.381,0,0,0-1.379.962,4.465,4.465,0,0,0-.875,1.317,3.617,3.617,0,0,0-.31,1.435h8.418a5.586,5.586,0,0,0-.282-1.628,3.577,3.577,0,0,0-.756-1.287,3.488,3.488,0,0,0-1.26-.858,4.613,4.613,0,0,0-1.764-.311A4.291,4.291,0,0,0-2536.994,13.581Zm41.2,11.881V11.436h2.668V13.6h.059a3.806,3.806,0,0,1,.712-1.021,4.766,4.766,0,0,1,.992-.784,5.305,5.305,0,0,1,1.2-.518,4.6,4.6,0,0,1,1.3-.192,3.737,3.737,0,0,1,1.186.178l-.118,2.87c-.217-.059-.434-.108-.652-.148a3.666,3.666,0,0,0-.652-.059,3.932,3.932,0,0,0-2.994,1.095,4.807,4.807,0,0,0-1.038,3.4v7.043Zm15.728,0-5.721-14.026h3.084l4.208,10.742,4.032-10.742h2.845l-5.513,14.026Zm-67.59,0-5.336-9.232h-3.172v9.232h-2.846V4.512h7.381a8.644,8.644,0,0,1,3.32.547,5.643,5.643,0,0,1,2.06,1.391,4.735,4.735,0,0,1,1.052,1.894,7.443,7.443,0,0,1,.3,2.027,5.387,5.387,0,0,1-.356,1.938A5.48,5.48,0,0,1-2546.273,14a5.831,5.831,0,0,1-1.63,1.272,5.668,5.668,0,0,1-2.149.636l5.958,9.558Zm-8.508-11.718h3.735a10.2,10.2,0,0,0,1.646-.133,4.418,4.418,0,0,0,1.452-.488A2.665,2.665,0,0,0-2548.3,12.1a3.426,3.426,0,0,0,.385-1.731,3.426,3.426,0,0,0-.385-1.731,2.665,2.665,0,0,0-1.023-1.021,4.418,4.418,0,0,0-1.452-.488A10.2,10.2,0,0,0-2552.425,7h-3.735Z" transform="translate(-2502.434 4898.488)" fill="url(#a)"/><path d="M4114.895-4552a1.447,1.447,0,0,1-.519-.1,29.667,29.667,0,0,1-13.119-9.759,38.418,38.418,0,0,1-6.267-12.734,52.078,52.078,0,0,1-2.071-15.722,1.456,1.456,0,0,1,.808-1.232l20.518-10.3a1.5,1.5,0,0,1,.65-.153,1.483,1.483,0,0,1,.65.153l20.519,10.3a1.454,1.454,0,0,1,.807,1.232,51.61,51.61,0,0,1-1.439,13.348c-.193.8-.406,1.6-.632,2.375-.185.629-.379,1.258-.59,1.867h0v.006a40.952,40.952,0,0,1-2.473,5.817c-.473.906-.981,1.788-1.51,2.62s-1.105,1.652-1.693,2.419c-.213.278-.431.555-.661.823a29.983,29.983,0,0,1-2.65,2.838,29.934,29.934,0,0,1-2.975,2.444,29.42,29.42,0,0,1-3.272,2.034,30.181,30.181,0,0,1-3.564,1.623A1.4,1.4,0,0,1,4114.895-4552Zm0-43.446a1.391,1.391,0,0,0-.65.154l-14.618,7.334a1.467,1.467,0,0,0-.8,1.4,47.942,47.942,0,0,0,1.866,10.63c2.5,8.315,7.063,14.167,13.56,17.391a1.476,1.476,0,0,0,.647.15,1.473,1.473,0,0,0,.646-.15c6.5-3.224,11.062-9.076,13.569-17.391a47.67,47.67,0,0,0,1.854-10.63,1.462,1.462,0,0,0-.8-1.4l-14.621-7.334a1.415,1.415,0,0,0-.176-.074A1.344,1.344,0,0,0,4114.895-4595.447Z" transform="translate(-9215.645 9504.001)" fill="url(#a)"/></g></svg>